<?xml version="1.0" encoding="utf-8"?>
<svg xmlns="http://www.w3.org/2000/svg" xmlns:xlink="http://www.w3.org/1999/xlink" width="200" height="350" viewBox="0 0 800 1400">
<defs>
  <clipPath id="clip280">
    <rect x="0" y="0" width="800" height="1400"/>
  </clipPath>
</defs>
<path clip-path="url(#clip280)" d="M0 1400 L800 1400 L800 0 L0 0  Z" fill="#ffffff" fill-rule="evenodd" fill-opacity="1"/>
<defs>
  <clipPath id="clip281">
    <rect x="280" y="140" width="800" height="981"/>
  </clipPath>
</defs>
<path clip-path="url(#clip280)" d="M264.251 1114.67 L689.764 1114.67 L689.764 110.236 L264.251 110.236  Z" fill="#ffffff" fill-rule="evenodd" fill-opacity="1"/>
<defs>
  <clipPath id="clip282">
    <rect x="264" y="110" width="427" height="1005"/>
  </clipPath>
</defs>
<polyline clip-path="url(#clip280)" style="stroke:#000000; stroke-linecap:round; stroke-linejoin:round; stroke-width:4; stroke-opacity:1; fill:none" points="264.251,1114.67 689.764,1114.67 "/>
<polyline clip-path="url(#clip280)" style="stroke:#000000; stroke-linecap:round; stroke-linejoin:round; stroke-width:4; stroke-opacity:1; fill:none" points="477.007,1114.67 477.007,1095.77 "/>
<path clip-path="url(#clip280)" d="M429.583 1140.52 Q425.069 1140.52 422.783 1144.97 Q420.526 1149.4 420.526 1158.31 Q420.526 1167.19 422.783 1171.65 Q425.069 1176.08 429.583 1176.08 Q434.126 1176.08 436.383 1171.65 Q438.668 1167.19 438.668 1158.31 Q438.668 1149.4 436.383 1144.97 Q434.126 1140.52 429.583 1140.52 M429.583 1135.89 Q436.846 1135.89 440.665 1141.64 Q444.513 1147.37 444.513 1158.31 Q444.513 1169.22 440.665 1174.98 Q436.846 1180.71 429.583 1180.71 Q422.32 1180.71 418.472 1174.98 Q414.652 1169.22 414.652 1158.31 Q414.652 1147.37 418.472 1141.64 Q422.32 1135.89 429.583 1135.89 Z" fill="#000000" fill-rule="nonzero" fill-opacity="1" /><path clip-path="url(#clip280)" d="M454.785 1172.52 L460.891 1172.52 L460.891 1179.87 L454.785 1179.87 L454.785 1172.52 Z" fill="#000000" fill-rule="nonzero" fill-opacity="1" /><path clip-path="url(#clip280)" d="M478.657 1174.95 L499.056 1174.95 L499.056 1179.87 L471.625 1179.87 L471.625 1174.95 Q474.953 1171.51 480.682 1165.72 Q486.44 1159.9 487.916 1158.22 Q490.723 1155.07 491.822 1152.9 Q492.951 1150.7 492.951 1148.59 Q492.951 1145.15 490.52 1142.98 Q488.118 1140.81 484.241 1140.81 Q481.492 1140.81 478.425 1141.76 Q475.387 1142.72 471.915 1144.65 L471.915 1138.75 Q475.445 1137.33 478.512 1136.61 Q481.579 1135.89 484.125 1135.89 Q490.838 1135.89 494.831 1139.24 Q498.824 1142.6 498.824 1148.21 Q498.824 1150.87 497.812 1153.28 Q496.828 1155.65 494.195 1158.89 Q493.471 1159.73 489.594 1163.75 Q485.717 1167.74 478.657 1174.95 Z" fill="#000000" fill-rule="nonzero" fill-opacity="1" /><path clip-path="url(#clip280)" d="M527.383 1141.76 L512.626 1164.82 L527.383 1164.82 L527.383 1141.76 M525.85 1136.67 L533.199 1136.67 L533.199 1164.82 L539.362 1164.82 L539.362 1169.68 L533.199 1169.68 L533.199 1179.87 L527.383 1179.87 L527.383 1169.68 L507.881 1169.68 L507.881 1164.04 L525.85 1136.67 Z" fill="#000000" fill-rule="nonzero" fill-opacity="1" /><path clip-path="url(#clip280)" d="M486.165 1224.82 L486.165 1207.28 L491.489 1207.28 L491.489 1252.31 L486.165 1252.31 L486.165 1247.45 Q484.487 1250.34 481.912 1251.76 Q479.366 1253.15 475.778 1253.15 Q469.904 1253.15 466.2 1248.46 Q462.525 1243.77 462.525 1236.13 Q462.525 1228.49 466.2 1223.81 Q469.904 1219.12 475.778 1219.12 Q479.366 1219.12 481.912 1220.54 Q484.487 1221.93 486.165 1224.82 M468.023 1236.13 Q468.023 1242.01 470.425 1245.36 Q472.855 1248.69 477.08 1248.69 Q481.304 1248.69 483.735 1245.36 Q486.165 1242.01 486.165 1236.13 Q486.165 1230.26 483.735 1226.93 Q481.304 1223.58 477.08 1223.58 Q472.855 1223.58 470.425 1226.93 Q468.023 1230.26 468.023 1236.13 Z" fill="#000000" fill-rule="nonzero" fill-opacity="1" /><polyline clip-path="url(#clip280)" style="stroke:#000000; stroke-linecap:round; stroke-linejoin:round; stroke-width:4; stroke-opacity:1; fill:none" points="264.251,1114.67 264.251,110.236 "/>
<polyline clip-path="url(#clip280)" style="stroke:#000000; stroke-linecap:round; stroke-linejoin:round; stroke-width:4; stroke-opacity:1; fill:none" points="264.251,1114.67 283.149,1114.67 "/>
<polyline clip-path="url(#clip280)" style="stroke:#000000; stroke-linecap:round; stroke-linejoin:round; stroke-width:4; stroke-opacity:1; fill:none" points="264.251,913.781 283.149,913.781 "/>
<polyline clip-path="url(#clip280)" style="stroke:#000000; stroke-linecap:round; stroke-linejoin:round; stroke-width:4; stroke-opacity:1; fill:none" points="264.251,712.895 283.149,712.895 "/>
<polyline clip-path="url(#clip280)" style="stroke:#000000; stroke-linecap:round; stroke-linejoin:round; stroke-width:4; stroke-opacity:1; fill:none" points="264.251,512.009 283.149,512.009 "/>
<polyline clip-path="url(#clip280)" style="stroke:#000000; stroke-linecap:round; stroke-linejoin:round; stroke-width:4; stroke-opacity:1; fill:none" points="264.251,311.123 283.149,311.123 "/>
<polyline clip-path="url(#clip280)" style="stroke:#000000; stroke-linecap:round; stroke-linejoin:round; stroke-width:4; stroke-opacity:1; fill:none" points="264.251,110.236 283.149,110.236 "/>
<path clip-path="url(#clip280)" d="M171.781 1096.92 Q167.268 1096.92 164.982 1101.37 Q162.725 1105.8 162.725 1114.71 Q162.725 1123.59 164.982 1128.05 Q167.268 1132.48 171.781 1132.48 Q176.324 1132.48 178.581 1128.05 Q180.867 1123.59 180.867 1114.71 Q180.867 1105.8 178.581 1101.37 Q176.324 1096.92 171.781 1096.92 M171.781 1092.29 Q179.044 1092.29 182.864 1098.04 Q186.712 1103.77 186.712 1114.71 Q186.712 1125.62 182.864 1131.38 Q179.044 1137.11 171.781 1137.11 Q164.519 1137.11 160.67 1131.38 Q156.851 1125.62 156.851 1114.71 Q156.851 1103.77 160.67 1098.04 Q164.519 1092.29 171.781 1092.29 Z" fill="#000000" fill-rule="nonzero" fill-opacity="1" /><path clip-path="url(#clip280)" d="M196.984 1128.92 L203.089 1128.92 L203.089 1136.27 L196.984 1136.27 L196.984 1128.92 Z" fill="#000000" fill-rule="nonzero" fill-opacity="1" /><path clip-path="url(#clip280)" d="M228.32 1096.92 Q223.807 1096.92 221.521 1101.37 Q219.264 1105.8 219.264 1114.71 Q219.264 1123.59 221.521 1128.05 Q223.807 1132.48 228.32 1132.48 Q232.863 1132.48 235.12 1128.05 Q237.406 1123.59 237.406 1114.71 Q237.406 1105.8 235.12 1101.37 Q232.863 1096.92 228.32 1096.92 M228.32 1092.29 Q235.583 1092.29 239.403 1098.04 Q243.251 1103.77 243.251 1114.71 Q243.251 1125.62 239.403 1131.38 Q235.583 1137.11 228.32 1137.11 Q221.058 1137.11 217.209 1131.38 Q213.39 1125.62 213.39 1114.71 Q213.39 1103.77 217.209 1098.04 Q221.058 1092.29 228.32 1092.29 Z" fill="#000000" fill-rule="nonzero" fill-opacity="1" /><path clip-path="url(#clip280)" d="M173.778 896.03 Q169.264 896.03 166.978 900.486 Q164.721 904.913 164.721 913.825 Q164.721 922.708 166.978 927.164 Q169.264 931.591 173.778 931.591 Q178.321 931.591 180.578 927.164 Q182.864 922.708 182.864 913.825 Q182.864 904.913 180.578 900.486 Q178.321 896.03 173.778 896.03 M173.778 891.4 Q181.041 891.4 184.86 897.158 Q188.708 902.887 188.708 913.825 Q188.708 924.733 184.86 930.491 Q181.041 936.221 173.778 936.221 Q166.515 936.221 162.667 930.491 Q158.847 924.733 158.847 913.825 Q158.847 902.887 162.667 897.158 Q166.515 891.4 173.778 891.4 Z" fill="#000000" fill-rule="nonzero" fill-opacity="1" /><path clip-path="url(#clip280)" d="M198.98 928.032 L205.086 928.032 L205.086 935.381 L198.98 935.381 L198.98 928.032 Z" fill="#000000" fill-rule="nonzero" fill-opacity="1" /><path clip-path="url(#clip280)" d="M222.852 930.462 L243.251 930.462 L243.251 935.381 L215.821 935.381 L215.821 930.462 Q219.148 927.019 224.877 921.232 Q230.635 915.416 232.111 913.738 Q234.918 910.584 236.017 908.414 Q237.146 906.215 237.146 904.103 Q237.146 900.659 234.715 898.489 Q232.313 896.319 228.436 896.319 Q225.687 896.319 222.62 897.274 Q219.582 898.229 216.11 900.167 L216.11 894.265 Q219.64 892.847 222.707 892.124 Q225.774 891.4 228.32 891.4 Q235.033 891.4 239.026 894.757 Q243.019 898.113 243.019 903.726 Q243.019 906.389 242.007 908.79 Q241.023 911.163 238.39 914.404 Q237.666 915.243 233.789 919.265 Q229.912 923.258 222.852 930.462 Z" fill="#000000" fill-rule="nonzero" fill-opacity="1" /><path clip-path="url(#clip280)" d="M171.174 695.143 Q166.66 695.143 164.374 699.599 Q162.117 704.027 162.117 712.939 Q162.117 721.822 164.374 726.278 Q166.66 730.705 171.174 730.705 Q175.717 730.705 177.974 726.278 Q180.259 721.822 180.259 712.939 Q180.259 704.027 177.974 699.599 Q175.717 695.143 171.174 695.143 M171.174 690.514 Q178.436 690.514 182.256 696.272 Q186.104 702.001 186.104 712.939 Q186.104 723.847 182.256 729.605 Q178.436 735.334 171.174 735.334 Q163.911 735.334 160.063 729.605 Q156.243 723.847 156.243 712.939 Q156.243 702.001 160.063 696.272 Q163.911 690.514 171.174 690.514 Z" fill="#000000" fill-rule="nonzero" fill-opacity="1" /><path clip-path="url(#clip280)" d="M196.376 727.146 L202.481 727.146 L202.481 734.495 L196.376 734.495 L196.376 727.146 Z" fill="#000000" fill-rule="nonzero" fill-opacity="1" /><path clip-path="url(#clip280)" d="M231.272 696.388 L216.515 719.449 L231.272 719.449 L231.272 696.388 M229.738 691.295 L237.088 691.295 L237.088 719.449 L243.251 719.449 L243.251 724.31 L237.088 724.31 L237.088 734.495 L231.272 734.495 L231.272 724.31 L211.77 724.31 L211.77 718.668 L229.738 691.295 Z" fill="#000000" fill-rule="nonzero" fill-opacity="1" /><path clip-path="url(#clip280)" d="M171.579 494.257 Q167.065 494.257 164.779 498.713 Q162.522 503.14 162.522 512.052 Q162.522 520.935 164.779 525.391 Q167.065 529.818 171.579 529.818 Q176.122 529.818 178.379 525.391 Q180.664 520.935 180.664 512.052 Q180.664 503.14 178.379 498.713 Q176.122 494.257 171.579 494.257 M171.579 489.628 Q178.842 489.628 182.661 495.386 Q186.509 501.115 186.509 512.052 Q186.509 522.961 182.661 528.719 Q178.842 534.448 171.579 534.448 Q164.316 534.448 160.468 528.719 Q156.648 522.961 156.648 512.052 Q156.648 501.115 160.468 495.386 Q164.316 489.628 171.579 489.628 Z" fill="#000000" fill-rule="nonzero" fill-opacity="1" /><path clip-path="url(#clip280)" d="M196.781 526.259 L202.887 526.259 L202.887 533.609 L196.781 533.609 L196.781 526.259 Z" fill="#000000" fill-rule="nonzero" fill-opacity="1" /><path clip-path="url(#clip280)" d="M228.841 509.68 Q224.906 509.68 222.591 512.371 Q220.305 515.061 220.305 519.749 Q220.305 524.407 222.591 527.127 Q224.906 529.818 228.841 529.818 Q232.776 529.818 235.062 527.127 Q237.377 524.407 237.377 519.749 Q237.377 515.061 235.062 512.371 Q232.776 509.68 228.841 509.68 M240.444 491.364 L240.444 496.688 Q238.245 495.646 235.988 495.096 Q233.76 494.547 231.561 494.547 Q225.774 494.547 222.707 498.453 Q219.669 502.359 219.235 510.258 Q220.942 507.741 223.517 506.41 Q226.092 505.05 229.189 505.05 Q235.699 505.05 239.46 509.014 Q243.251 512.949 243.251 519.749 Q243.251 526.404 239.316 530.426 Q235.381 534.448 228.841 534.448 Q221.347 534.448 217.383 528.719 Q213.419 522.961 213.419 512.052 Q213.419 501.809 218.28 495.733 Q223.141 489.628 231.33 489.628 Q233.529 489.628 235.757 490.062 Q238.014 490.496 240.444 491.364 Z" fill="#000000" fill-rule="nonzero" fill-opacity="1" /><path clip-path="url(#clip280)" d="M171.897 293.371 Q167.383 293.371 165.097 297.827 Q162.84 302.254 162.84 311.166 Q162.84 320.049 165.097 324.505 Q167.383 328.932 171.897 328.932 Q176.44 328.932 178.697 324.505 Q180.983 320.049 180.983 311.166 Q180.983 302.254 178.697 297.827 Q176.44 293.371 171.897 293.371 M171.897 288.741 Q179.16 288.741 182.979 294.499 Q186.828 300.228 186.828 311.166 Q186.828 322.074 182.979 327.832 Q179.16 333.562 171.897 333.562 Q164.634 333.562 160.786 327.832 Q156.967 322.074 156.967 311.166 Q156.967 300.228 160.786 294.499 Q164.634 288.741 171.897 288.741 Z" fill="#000000" fill-rule="nonzero" fill-opacity="1" /><path clip-path="url(#clip280)" d="M197.1 325.373 L203.205 325.373 L203.205 332.723 L197.1 332.723 L197.1 325.373 Z" fill="#000000" fill-rule="nonzero" fill-opacity="1" /><path clip-path="url(#clip280)" d="M228.436 312.208 Q224.27 312.208 221.868 314.436 Q219.495 316.664 219.495 320.57 Q219.495 324.476 221.868 326.704 Q224.27 328.932 228.436 328.932 Q232.603 328.932 235.004 326.704 Q237.406 324.447 237.406 320.57 Q237.406 316.664 235.004 314.436 Q232.632 312.208 228.436 312.208 M222.591 309.719 Q218.83 308.793 216.718 306.218 Q214.634 303.643 214.634 299.939 Q214.634 294.76 218.309 291.751 Q222.013 288.741 228.436 288.741 Q234.889 288.741 238.563 291.751 Q242.238 294.76 242.238 299.939 Q242.238 303.643 240.126 306.218 Q238.043 308.793 234.31 309.719 Q238.535 310.703 240.878 313.568 Q243.251 316.432 243.251 320.57 Q243.251 326.849 239.403 330.205 Q235.583 333.562 228.436 333.562 Q221.289 333.562 217.441 330.205 Q213.621 326.849 213.621 320.57 Q213.621 316.432 215.994 313.568 Q218.367 310.703 222.591 309.719 M220.45 300.489 Q220.45 303.845 222.533 305.726 Q224.646 307.607 228.436 307.607 Q232.198 307.607 234.31 305.726 Q236.451 303.845 236.451 300.489 Q236.451 297.132 234.31 295.252 Q232.198 293.371 228.436 293.371 Q224.646 293.371 222.533 295.252 Q220.45 297.132 220.45 300.489 Z" fill="#000000" fill-rule="nonzero" fill-opacity="1" /><path clip-path="url(#clip280)" d="M160.294 126.917 L169.843 126.917 L169.843 93.9603 L159.455 96.0436 L159.455 90.7195 L169.785 88.6362 L175.63 88.6362 L175.63 126.917 L185.178 126.917 L185.178 131.836 L160.294 131.836 L160.294 126.917 Z" fill="#000000" fill-rule="nonzero" fill-opacity="1" /><path clip-path="url(#clip280)" d="M196.984 124.487 L203.089 124.487 L203.089 131.836 L196.984 131.836 L196.984 124.487 Z" fill="#000000" fill-rule="nonzero" fill-opacity="1" /><path clip-path="url(#clip280)" d="M228.32 92.4846 Q223.807 92.4846 221.521 96.9406 Q219.264 101.368 219.264 110.28 Q219.264 119.163 221.521 123.619 Q223.807 128.046 228.32 128.046 Q232.863 128.046 235.12 123.619 Q237.406 119.163 237.406 110.28 Q237.406 101.368 235.12 96.9406 Q232.863 92.4846 228.32 92.4846 M228.32 87.855 Q235.583 87.855 239.403 93.613 Q243.251 99.3422 243.251 110.28 Q243.251 121.188 239.403 126.946 Q235.583 132.675 228.32 132.675 Q221.058 132.675 217.209 126.946 Q213.39 121.188 213.39 110.28 Q213.39 99.3422 217.209 93.613 Q221.058 87.855 228.32 87.855 Z" fill="#000000" fill-rule="nonzero" fill-opacity="1" /><path clip-path="url(#clip280)" d="M77.2604 602.137 L81.6874 602.137 L81.6874 607.229 Q81.6874 610.094 82.8449 611.222 Q84.0023 612.322 87.0115 612.322 L89.8761 612.322 L89.8761 603.554 L94.0138 603.554 L94.0138 612.322 L122.283 612.322 L122.283 617.675 L94.0138 617.675 L94.0138 622.767 L89.8761 622.767 L89.8761 617.675 L87.6191 617.675 Q82.2083 617.675 79.7488 615.157 Q77.2604 612.64 77.2604 607.171 L77.2604 602.137 Z" fill="#000000" fill-rule="nonzero" fill-opacity="1" /><circle clip-path="url(#clip282)" cx="477.007" cy="260.901" r="3.6" fill="#009af9" fill-rule="evenodd" fill-opacity="1" stroke="#000000" stroke-opacity="1" stroke-width="1.6"/>
<circle clip-path="url(#clip282)" cx="477.007" cy="763.117" r="3.6" fill="#009af9" fill-rule="evenodd" fill-opacity="1" stroke="#000000" stroke-opacity="1" stroke-width="1.6"/>
<circle clip-path="url(#clip282)" cx="477.007" cy="873.604" r="3.6" fill="#009af9" fill-rule="evenodd" fill-opacity="1" stroke="#000000" stroke-opacity="1" stroke-width="1.6"/>
</svg>
